<mxfile host="Electron" agent="Mozilla/5.0 (Windows NT 10.0; Win64; x64) AppleWebKit/537.36 (KHTML, like Gecko) draw.io/26.0.16 Chrome/132.0.6834.196 Electron/34.2.0 Safari/537.36" version="26.0.16">
  <diagram name="Page-1" id="cQBfUwnbrEGuQixiRogG">
    <mxGraphModel dx="702" dy="544" grid="1" gridSize="10" guides="1" tooltips="1" connect="1" arrows="1" fold="1" page="1" pageScale="1" pageWidth="827" pageHeight="1169" math="0" shadow="0">
      <root>
        <mxCell id="0" />
        <mxCell id="1" parent="0" />
        <mxCell id="LEJkM0-SKzg_fPJmc3Sn-1" value="" style="rounded=0;whiteSpace=wrap;html=1;fillColor=none;dashed=1;" parent="1" vertex="1">
          <mxGeometry x="40" y="160" width="120" height="350" as="geometry" />
        </mxCell>
        <mxCell id="LEJkM0-SKzg_fPJmc3Sn-2" value="Sources" style="rounded=1;whiteSpace=wrap;html=1;strokeColor=none;" parent="1" vertex="1">
          <mxGeometry x="65" y="150" width="70" height="30" as="geometry" />
        </mxCell>
        <mxCell id="LEJkM0-SKzg_fPJmc3Sn-10" style="edgeStyle=orthogonalEdgeStyle;rounded=0;orthogonalLoop=1;jettySize=auto;html=1;entryX=0;entryY=0.5;entryDx=0;entryDy=0;" parent="1" source="LEJkM0-SKzg_fPJmc3Sn-3" target="LEJkM0-SKzg_fPJmc3Sn-7" edge="1">
          <mxGeometry relative="1" as="geometry" />
        </mxCell>
        <mxCell id="LEJkM0-SKzg_fPJmc3Sn-11" style="edgeStyle=orthogonalEdgeStyle;rounded=0;orthogonalLoop=1;jettySize=auto;html=1;" parent="1" source="LEJkM0-SKzg_fPJmc3Sn-3" target="LEJkM0-SKzg_fPJmc3Sn-8" edge="1">
          <mxGeometry relative="1" as="geometry" />
        </mxCell>
        <mxCell id="LEJkM0-SKzg_fPJmc3Sn-12" style="edgeStyle=orthogonalEdgeStyle;rounded=0;orthogonalLoop=1;jettySize=auto;html=1;entryX=0;entryY=0.5;entryDx=0;entryDy=0;" parent="1" source="LEJkM0-SKzg_fPJmc3Sn-3" target="LEJkM0-SKzg_fPJmc3Sn-9" edge="1">
          <mxGeometry relative="1" as="geometry" />
        </mxCell>
        <mxCell id="LEJkM0-SKzg_fPJmc3Sn-3" value="CRM" style="image;aspect=fixed;html=1;points=[];align=center;fontSize=12;image=img/lib/azure2/general/Folder_Blank.svg;" parent="1" vertex="1">
          <mxGeometry x="66" y="248" width="69" height="56.00000000000001" as="geometry" />
        </mxCell>
        <mxCell id="LEJkM0-SKzg_fPJmc3Sn-16" style="edgeStyle=orthogonalEdgeStyle;rounded=0;orthogonalLoop=1;jettySize=auto;html=1;entryX=0;entryY=0.5;entryDx=0;entryDy=0;" parent="1" source="LEJkM0-SKzg_fPJmc3Sn-4" target="LEJkM0-SKzg_fPJmc3Sn-14" edge="1">
          <mxGeometry relative="1" as="geometry" />
        </mxCell>
        <mxCell id="LEJkM0-SKzg_fPJmc3Sn-17" style="edgeStyle=orthogonalEdgeStyle;rounded=0;orthogonalLoop=1;jettySize=auto;html=1;entryX=0;entryY=0.5;entryDx=0;entryDy=0;" parent="1" source="LEJkM0-SKzg_fPJmc3Sn-4" target="LEJkM0-SKzg_fPJmc3Sn-13" edge="1">
          <mxGeometry relative="1" as="geometry" />
        </mxCell>
        <mxCell id="LEJkM0-SKzg_fPJmc3Sn-18" style="edgeStyle=orthogonalEdgeStyle;rounded=0;orthogonalLoop=1;jettySize=auto;html=1;entryX=0;entryY=0.5;entryDx=0;entryDy=0;" parent="1" source="LEJkM0-SKzg_fPJmc3Sn-4" target="LEJkM0-SKzg_fPJmc3Sn-15" edge="1">
          <mxGeometry relative="1" as="geometry" />
        </mxCell>
        <mxCell id="LEJkM0-SKzg_fPJmc3Sn-4" value="ERP" style="image;aspect=fixed;html=1;points=[];align=center;fontSize=12;image=img/lib/azure2/general/Folder_Blank.svg;" parent="1" vertex="1">
          <mxGeometry x="65.5" y="391" width="69" height="56.00000000000001" as="geometry" />
        </mxCell>
        <mxCell id="LEJkM0-SKzg_fPJmc3Sn-5" value="Bronze Layer" style="rounded=1;whiteSpace=wrap;html=1;fillColor=#ffe6cc;strokeColor=#d79b00;" parent="1" vertex="1">
          <mxGeometry x="240" y="130" width="120" height="30" as="geometry" />
        </mxCell>
        <mxCell id="LEJkM0-SKzg_fPJmc3Sn-6" value="" style="rounded=1;whiteSpace=wrap;html=1;fillColor=none;strokeColor=#d79b00;" parent="1" vertex="1">
          <mxGeometry x="240" y="170" width="120" height="340" as="geometry" />
        </mxCell>
        <mxCell id="E0ChISWchmLFmb-2jHkW-9" style="edgeStyle=orthogonalEdgeStyle;rounded=0;orthogonalLoop=1;jettySize=auto;html=1;exitX=1;exitY=0.5;exitDx=0;exitDy=0;entryX=0;entryY=0.5;entryDx=0;entryDy=0;" edge="1" parent="1" source="LEJkM0-SKzg_fPJmc3Sn-7" target="E0ChISWchmLFmb-2jHkW-3">
          <mxGeometry relative="1" as="geometry" />
        </mxCell>
        <mxCell id="LEJkM0-SKzg_fPJmc3Sn-7" value="crm_sales_details" style="rounded=1;whiteSpace=wrap;html=1;fillColor=#ffe6cc;strokeColor=#d79b00;" parent="1" vertex="1">
          <mxGeometry x="247.5" y="230" width="105" height="20" as="geometry" />
        </mxCell>
        <mxCell id="E0ChISWchmLFmb-2jHkW-10" style="edgeStyle=orthogonalEdgeStyle;rounded=0;orthogonalLoop=1;jettySize=auto;html=1;exitX=1;exitY=0.5;exitDx=0;exitDy=0;entryX=0;entryY=0.5;entryDx=0;entryDy=0;" edge="1" parent="1" source="LEJkM0-SKzg_fPJmc3Sn-8" target="E0ChISWchmLFmb-2jHkW-4">
          <mxGeometry relative="1" as="geometry" />
        </mxCell>
        <mxCell id="LEJkM0-SKzg_fPJmc3Sn-8" value="crm_cust_info" style="rounded=1;whiteSpace=wrap;html=1;fillColor=#ffe6cc;strokeColor=#d79b00;" parent="1" vertex="1">
          <mxGeometry x="247.5" y="266" width="105" height="20" as="geometry" />
        </mxCell>
        <mxCell id="E0ChISWchmLFmb-2jHkW-11" style="edgeStyle=orthogonalEdgeStyle;rounded=0;orthogonalLoop=1;jettySize=auto;html=1;exitX=1;exitY=0.5;exitDx=0;exitDy=0;entryX=0;entryY=0.5;entryDx=0;entryDy=0;" edge="1" parent="1" source="LEJkM0-SKzg_fPJmc3Sn-9" target="E0ChISWchmLFmb-2jHkW-5">
          <mxGeometry relative="1" as="geometry" />
        </mxCell>
        <mxCell id="LEJkM0-SKzg_fPJmc3Sn-9" value="crm_prd_info" style="rounded=1;whiteSpace=wrap;html=1;fillColor=#ffe6cc;strokeColor=#d79b00;" parent="1" vertex="1">
          <mxGeometry x="247.5" y="300" width="105" height="20" as="geometry" />
        </mxCell>
        <mxCell id="E0ChISWchmLFmb-2jHkW-12" style="edgeStyle=orthogonalEdgeStyle;rounded=0;orthogonalLoop=1;jettySize=auto;html=1;exitX=1;exitY=0.5;exitDx=0;exitDy=0;" edge="1" parent="1" source="LEJkM0-SKzg_fPJmc3Sn-13" target="E0ChISWchmLFmb-2jHkW-6">
          <mxGeometry relative="1" as="geometry" />
        </mxCell>
        <mxCell id="LEJkM0-SKzg_fPJmc3Sn-13" value="erp_cust_az12" style="rounded=1;whiteSpace=wrap;html=1;fillColor=#ffe6cc;strokeColor=#d79b00;" parent="1" vertex="1">
          <mxGeometry x="247.5" y="373" width="105" height="20" as="geometry" />
        </mxCell>
        <mxCell id="E0ChISWchmLFmb-2jHkW-13" style="edgeStyle=orthogonalEdgeStyle;rounded=0;orthogonalLoop=1;jettySize=auto;html=1;exitX=1;exitY=0.5;exitDx=0;exitDy=0;entryX=0;entryY=0.5;entryDx=0;entryDy=0;" edge="1" parent="1" source="LEJkM0-SKzg_fPJmc3Sn-14" target="E0ChISWchmLFmb-2jHkW-7">
          <mxGeometry relative="1" as="geometry" />
        </mxCell>
        <mxCell id="LEJkM0-SKzg_fPJmc3Sn-14" value="erp_loc_a101" style="rounded=1;whiteSpace=wrap;html=1;fillColor=#ffe6cc;strokeColor=#d79b00;" parent="1" vertex="1">
          <mxGeometry x="247.5" y="409" width="105" height="20" as="geometry" />
        </mxCell>
        <mxCell id="E0ChISWchmLFmb-2jHkW-14" style="edgeStyle=orthogonalEdgeStyle;rounded=0;orthogonalLoop=1;jettySize=auto;html=1;exitX=1;exitY=0.5;exitDx=0;exitDy=0;" edge="1" parent="1" source="LEJkM0-SKzg_fPJmc3Sn-15" target="E0ChISWchmLFmb-2jHkW-8">
          <mxGeometry relative="1" as="geometry" />
        </mxCell>
        <mxCell id="LEJkM0-SKzg_fPJmc3Sn-15" value="erp_px_cat_g1v2" style="rounded=1;whiteSpace=wrap;html=1;fillColor=#ffe6cc;strokeColor=#d79b00;" parent="1" vertex="1">
          <mxGeometry x="247.5" y="443" width="105" height="20" as="geometry" />
        </mxCell>
        <mxCell id="E0ChISWchmLFmb-2jHkW-1" value="Silver Layer" style="rounded=1;whiteSpace=wrap;html=1;fillColor=#f5f5f5;strokeColor=#666666;fontColor=#333333;" vertex="1" parent="1">
          <mxGeometry x="400" y="130" width="120" height="30" as="geometry" />
        </mxCell>
        <mxCell id="E0ChISWchmLFmb-2jHkW-2" value="" style="rounded=1;whiteSpace=wrap;html=1;fillColor=none;strokeColor=#666666;fontColor=#333333;" vertex="1" parent="1">
          <mxGeometry x="400" y="170" width="120" height="340" as="geometry" />
        </mxCell>
        <mxCell id="E0ChISWchmLFmb-2jHkW-3" value="crm_sales_details" style="rounded=1;whiteSpace=wrap;html=1;fillColor=#f5f5f5;strokeColor=#666666;fontColor=#333333;" vertex="1" parent="1">
          <mxGeometry x="407.5" y="230" width="105" height="20" as="geometry" />
        </mxCell>
        <mxCell id="E0ChISWchmLFmb-2jHkW-4" value="crm_cust_info" style="rounded=1;whiteSpace=wrap;html=1;fillColor=#f5f5f5;strokeColor=#666666;fontColor=#333333;" vertex="1" parent="1">
          <mxGeometry x="407.5" y="266" width="105" height="20" as="geometry" />
        </mxCell>
        <mxCell id="E0ChISWchmLFmb-2jHkW-5" value="crm_prd_info" style="rounded=1;whiteSpace=wrap;html=1;fillColor=#f5f5f5;strokeColor=#666666;fontColor=#333333;" vertex="1" parent="1">
          <mxGeometry x="407.5" y="300" width="105" height="20" as="geometry" />
        </mxCell>
        <mxCell id="E0ChISWchmLFmb-2jHkW-6" value="erp_cust_az12" style="rounded=1;whiteSpace=wrap;html=1;fillColor=#f5f5f5;strokeColor=#666666;fontColor=#333333;" vertex="1" parent="1">
          <mxGeometry x="407.5" y="373" width="105" height="20" as="geometry" />
        </mxCell>
        <mxCell id="E0ChISWchmLFmb-2jHkW-7" value="erp_loc_a101" style="rounded=1;whiteSpace=wrap;html=1;fillColor=#f5f5f5;strokeColor=#666666;fontColor=#333333;" vertex="1" parent="1">
          <mxGeometry x="407.5" y="409" width="105" height="20" as="geometry" />
        </mxCell>
        <mxCell id="E0ChISWchmLFmb-2jHkW-8" value="erp_px_cat_g1v2" style="rounded=1;whiteSpace=wrap;html=1;fillColor=#f5f5f5;strokeColor=#666666;fontColor=#333333;" vertex="1" parent="1">
          <mxGeometry x="407.5" y="443" width="105" height="20" as="geometry" />
        </mxCell>
      </root>
    </mxGraphModel>
  </diagram>
</mxfile>
